<svg fill="none" viewBox="0 0 800 200" xmlns="http://www.w3.org/2000/svg" xmlns:xlink="http://www.w3.org/1999/xlink"><linearGradient id="a" x1="0%" x2="100%" y1="0%" y2="100%"><stop offset="0" stop-color="#0f172a"/><stop offset="1" stop-color="#1e293b"/></linearGradient><linearGradient id="b" x1="0%" x2="100%" y1="0%" y2="100%"><stop offset="0" stop-color="#6366f1"/><stop offset="1" stop-color="#8b5cf6"/></linearGradient><rect fill="url(#a)" height="200" rx="16" width="800"/><rect fill="#1e293b" height="28" rx="5" stroke="#334155" width="64" x="555" y="32"/><rect fill="#6366f1" height="5" opacity=".5" rx="2.5" width="26" x="562" y="40"/><rect fill="#475569" height="4" opacity=".4" rx="2" width="50" x="562" y="48"/><rect fill="#1e293b" height="28" rx="5" stroke="#334155" width="64" x="625" y="32"/><circle cx="641" cy="46" fill="#6366f1" opacity=".3" r="6"/><rect fill="#475569" height="4" opacity=".4" rx="2" width="28" x="651" y="42"/><rect fill="#1e293b" height="28" rx="5" stroke="#334155" width="64" x="695" y="32"/><rect fill="#6366f1" height="10" opacity=".2" rx="3" width="48" x="703" y="40"/><rect fill="#1e293b" height="28" rx="5" stroke="#334155" width="100" x="555" y="66"/><rect fill="#8b5cf6" height="7" opacity=".4" rx="3.5" width="32" x="562" y="73"/><rect fill="#334155" height="7" opacity=".5" rx="3.5" width="32" x="599" y="73"/><rect fill="#475569" height="4" opacity=".3" rx="2" width="86" x="562" y="84"/><rect fill="#1e293b" height="28" rx="5" stroke="#334155" width="98" x="661" y="66"/><rect fill="#475569" height="5" opacity=".4" rx="2.5" width="82" x="669" y="73"/><rect fill="#475569" height="5" opacity=".25" rx="2.5" width="58" x="669" y="82"/><rect fill="#1e293b" height="28" rx="5" stroke="#334155" width="130" x="555" y="100"/><rect fill="#475569" height="4" opacity=".4" rx="2" width="116" x="562" y="108"/><rect fill="#475569" height="4" opacity=".25" rx="2" width="84" x="562" y="116"/><rect fill="#1e293b" height="28" opacity=".6" rx="5" stroke="#6366f1" width="68" x="691" y="100"/><rect fill="#6366f1" height="10" opacity=".3" rx="5" width="44" x="703" y="109"/><rect fill="#1e293b" height="24" rx="5" stroke="#334155" width="204" x="555" y="134"/><rect fill="#6366f1" height="10" opacity=".25" rx="2" width="18" x="562" y="141"/><rect fill="#475569" height="5" opacity=".4" rx="2.5" width="52" x="585" y="143"/><rect fill="#6366f1" height="8" opacity=".2" rx="4" width="22" x="731" y="142"/><g transform="translate(50 32)"><rect fill="url(#b)" height="44" opacity=".15" rx="11" width="44"/><rect fill="#818cf8" height="11" opacity=".7" rx="2" width="11" x="9" y="9"/><rect fill="#a78bfa" height="11" opacity=".5" rx="2" width="11" x="24" y="9"/><rect fill="#a78bfa" height="11" opacity=".5" rx="2" width="11" x="9" y="24"/><rect fill="#818cf8" height="11" opacity=".7" rx="2" width="11" x="24" y="24"/></g><g font-family="system-ui, -apple-system, 'Segoe UI', sans-serif"><text fill="#fff" font-size="30" font-weight="700" letter-spacing="-.5" x="108" y="60">Laravel UI Kit</text><g fill="#94a3b8" font-size="12"><text x="50" y="92">25+ adaptive components for every</text><text x="50" y="108">CSS and frontend framework</text></g></g><g transform="translate(50 122)"><rect fill="#1e3a5f" height="20" opacity=".8" rx="10" stroke="#3b82f6" stroke-width=".8" width="66"/><text fill="#60a5fa" font-family="system-ui, sans-serif" font-size="9" font-weight="500" text-anchor="middle" x="33" y="14">Tailwind</text><rect fill="#1e3a5f" height="20" opacity=".8" rx="10" stroke="#3b82f6" stroke-width=".8" width="82" x="72"/><text fill="#60a5fa" font-family="system-ui, sans-serif" font-size="9" font-weight="500" text-anchor="middle" x="113" y="14">Bootstrap 5</text><rect fill="#1e3a5f" height="20" opacity=".8" rx="10" stroke="#3b82f6" stroke-width=".8" width="82" x="160"/><text fill="#60a5fa" font-family="system-ui, sans-serif" font-size="9" font-weight="500" text-anchor="middle" x="201" y="14">Bootstrap 4</text><rect fill="#1e1b4b" height="20" opacity=".8" rx="10" stroke="#6366f1" stroke-width=".8" width="80" x="248"/><text fill="#818cf8" font-family="system-ui, sans-serif" font-size="9" font-weight="500" text-anchor="middle" x="288" y="14">Dark Mode</text></g><g transform="translate(50 148)"><rect fill="#1a1a2e" height="20" opacity=".8" rx="10" stroke="#8b5cf6" stroke-width=".8" width="50"/><text fill="#a78bfa" font-family="system-ui, sans-serif" font-size="9" font-weight="500" text-anchor="middle" x="25" y="14">Blade</text><rect fill="#1a1a2e" height="20" opacity=".8" rx="10" stroke="#8b5cf6" stroke-width=".8" width="68" x="56"/><text fill="#a78bfa" font-family="system-ui, sans-serif" font-size="9" font-weight="500" text-anchor="middle" x="90" y="14">Livewire</text><rect fill="#1a1a2e" height="20" opacity=".8" rx="10" stroke="#8b5cf6" stroke-width=".8" width="42" x="130"/><text fill="#a78bfa" font-family="system-ui, sans-serif" font-size="9" font-weight="500" text-anchor="middle" x="151" y="14">Vue</text><rect fill="#1a1a2e" height="20" opacity=".8" rx="10" stroke="#8b5cf6" stroke-width=".8" width="50" x="178"/><text fill="#a78bfa" font-family="system-ui, sans-serif" font-size="9" font-weight="500" text-anchor="middle" x="203" y="14">React</text><rect fill="#1a1a2e" height="20" opacity=".8" rx="10" stroke="#8b5cf6" stroke-width=".8" width="56" x="234"/><text fill="#a78bfa" font-family="system-ui, sans-serif" font-size="9" font-weight="500" text-anchor="middle" x="262" y="14">Svelte</text><rect fill="#1e1b4b" height="20" opacity=".8" rx="10" stroke="#6366f1" stroke-width=".8" width="102" x="296"/><text fill="#818cf8" font-family="system-ui, sans-serif" font-size="9" font-weight="500" text-anchor="middle" x="347" y="14">25 Components</text></g></svg>