<svg fill="none" viewBox="0 0 800 200" xmlns="http://www.w3.org/2000/svg" xmlns:xlink="http://www.w3.org/1999/xlink"><linearGradient id="a" x1="0%" x2="100%" y1="0%" y2="100%"><stop offset="0" stop-color="#6366f1"/><stop offset="1" stop-color="#8b5cf6"/></linearGradient><rect fill="#fff" height="200" rx="16" width="800"/><rect fill="none" height="200" rx="16" stroke="#e5e7eb" width="800"/><rect fill="#f8fafc" height="32" rx="6" stroke="#e2e8f0" width="72" x="520" y="28"/><rect fill="#6366f1" height="5" opacity=".3" rx="2.5" width="32" x="528" y="38"/><rect fill="#cbd5e1" height="4" opacity=".5" rx="2" width="56" x="528" y="47"/><rect fill="#f8fafc" height="32" rx="6" stroke="#e2e8f0" width="72" x="602" y="28"/><circle cx="620" cy="44" fill="#6366f1" opacity=".15" r="8"/><rect fill="#cbd5e1" height="4" opacity=".5" rx="2" width="32" x="634" y="40"/><rect fill="#f8fafc" height="32" rx="6" stroke="#e2e8f0" width="72" x="684" y="28"/><rect fill="#6366f1" height="12" opacity=".1" rx="3" width="56" x="692" y="38"/><rect fill="#f8fafc" height="32" rx="6" stroke="#e2e8f0" width="112" x="520" y="68"/><rect fill="#8b5cf6" height="8" opacity=".2" rx="4" width="40" x="528" y="76"/><rect fill="#e2e8f0" height="8" opacity=".6" rx="4" width="40" x="574" y="76"/><rect fill="#cbd5e1" height="4" opacity=".4" rx="2" width="96" x="528" y="88"/><rect fill="#f8fafc" height="32" rx="6" stroke="#e2e8f0" width="114" x="642" y="68"/><rect fill="#cbd5e1" height="6" opacity=".5" rx="3" width="98" x="650" y="76"/><rect fill="#cbd5e1" height="6" opacity=".3" rx="3" width="70" x="650" y="86"/><rect fill="#f8fafc" height="32" rx="6" stroke="#e2e8f0" width="154" x="520" y="108"/><g fill="#cbd5e1"><rect height="4" opacity=".5" rx="2" width="138" x="528" y="116"/><rect height="4" opacity=".3" rx="2" width="100" x="528" y="124"/><rect height="4" opacity=".2" rx="2" width="80" x="528" y="132"/></g><rect fill="#f8fafc" height="32" opacity=".5" rx="6" stroke="#6366f1" width="72" x="684" y="108"/><rect fill="#6366f1" height="12" opacity=".15" rx="6" width="48" x="696" y="118"/><rect fill="#f8fafc" height="28" rx="6" stroke="#e2e8f0" width="236" x="520" y="148"/><rect fill="#6366f1" height="12" opacity=".12" rx="2" width="24" x="528" y="156"/><rect fill="#cbd5e1" height="5" opacity=".5" rx="2.5" width="60" x="558" y="159"/><rect fill="#cbd5e1" height="4" opacity=".3" rx="2" width="40" x="558" y="166"/><rect fill="#6366f1" height="10" opacity=".12" rx="5" width="28" x="720" y="158"/><g transform="translate(60 40)"><rect fill="url(#a)" height="56" opacity=".08" rx="14" width="56"/><rect fill="url(#a)" height="48" opacity=".06" rx="12" width="48" x="4" y="4"/><rect fill="#6366f1" height="12" opacity=".5" rx="2" width="12" x="14" y="14"/><rect fill="#8b5cf6" height="12" opacity=".35" rx="2" width="12" x="30" y="14"/><rect fill="#8b5cf6" height="12" opacity=".35" rx="2" width="12" x="14" y="30"/><rect fill="#6366f1" height="12" opacity=".5" rx="2" width="12" x="30" y="30"/></g><text fill="#0f172a" font-family="system-ui, -apple-system, 'Segoe UI', sans-serif" font-size="36" font-weight="700" letter-spacing="-.5" x="135" y="72">Laravel UI Kit</text><text fill="#64748b" font-family="system-ui, -apple-system, 'Segoe UI', sans-serif" font-size="14" letter-spacing=".3" x="135" y="100">25+ adaptive components for every CSS and frontend framework</text><g transform="translate(60 130)"><rect fill="#eef2ff" height="22" rx="11" stroke="#6366f1" stroke-width=".8" width="92"/><text fill="#4338ca" font-family="system-ui, sans-serif" font-size="10" font-weight="500" text-anchor="middle" x="46" y="15">25 Components</text><rect fill="#eef2ff" height="22" rx="11" stroke="#8b5cf6" stroke-width=".8" width="62" x="100"/><text fill="#6d28d9" font-family="system-ui, sans-serif" font-size="10" font-weight="500" text-anchor="middle" x="131" y="15">3 CSS</text><rect fill="#f5f3ff" height="22" rx="11" stroke="#a78bfa" stroke-width=".8" width="82" x="170"/><text fill="#7c3aed" font-family="system-ui, sans-serif" font-size="10" font-weight="500" text-anchor="middle" x="211" y="15">5 Frontends</text><rect fill="#eef2ff" height="22" rx="11" stroke="#6366f1" stroke-width=".8" width="80" x="260"/><text fill="#4338ca" font-family="system-ui, sans-serif" font-size="10" font-weight="500" text-anchor="middle" x="300" y="15">Dark Mode</text><rect fill="#f5f3ff" height="22" rx="11" stroke="#8b5cf6" stroke-width=".8" width="72" x="348"/><text fill="#6d28d9" font-family="system-ui, sans-serif" font-size="10" font-weight="500" text-anchor="middle" x="384" y="15">Livewire</text></g></svg>